<svg id="artwork" xmlns="http://www.w3.org/2000/svg" viewBox="0 0 512 512"><title>Delivery_service</title><g id="Delivery_service"><rect x="74.82" y="185.64" width="69.88" height="12" style="fill:#f47a53"/><rect x="44.91" y="185.64" width="16.22" height="12" style="fill:#f47a53"/><rect x="74.82" y="213.77" width="42.34" height="12" style="fill:#f47a53"/><rect x="40.33" y="357.29" width="75.84" height="12" style="fill:#f47a53"/><rect x="9.33" y="357.29" width="17.67" height="12" style="fill:#f47a53"/><rect x="73.84" y="385.81" width="42.34" height="12" style="fill:#f47a53"/><rect x="36.33" y="385.81" width="20" height="12" style="fill:#f47a53"/><path d="M360.54,179.67v215a13.19,13.19,0,0,0-12.45,8.82H189.52a13.2,13.2,0,0,0-24.9,0H116.17V179.67Z" style="fill:#def1f9"/><path d="M360.54,179.67v215a13.19,13.19,0,0,0-12.45,8.82H336.33V179.67Z" style="fill:#83afc6"/><path d="M487.19,296.78V403.47H372.08a13.36,13.36,0,0,0-12.36-8.2V209.07h37.75l28.65,28L481,290.76Z" style="fill:#158c8c"/><rect x="379.06" y="310.63" width="31.02" height="12" style="fill:#3dc9c9"/><rect x="379.06" y="327.1" width="31.02" height="12" style="fill:#3dc9c9"/><path d="M474.33,385.84v17.63H369.2a13.48,13.48,0,0,0-12.48-8.37v-9.26Z" style="fill:#0f7c79"/><rect x="475.43" y="360.82" width="23.52" height="42.48" transform="translate(974.38 764.11) rotate(180)" style="fill:#3dc9c9"/><polygon points="482.15 292.5 384.88 292.5 384.88 237.68 426.74 237.68 482.15 292.5" style="fill:#fff"/><path d="M361.15,371.25a35.95,35.95,0,1,0,36,35.95A35.95,35.95,0,0,0,361.15,371.25Zm0,49.38a13.43,13.43,0,1,1,13.44-13.43A13.43,13.43,0,0,1,361.15,420.63Z" style="fill:#3e4757"/><path d="M177.07,371.25A36,36,0,1,0,213,407.2,35.95,35.95,0,0,0,177.07,371.25Zm0,49.38A13.43,13.43,0,1,1,190.5,407.2,13.43,13.43,0,0,1,177.07,420.63Z" style="fill:#3e4757"/><path d="M390.91,69.38a39.73,39.73,0,0,0-39.73,39.73c0,21.94,39.73,66.82,39.73,66.82s39.74-44.88,39.74-66.82A39.74,39.74,0,0,0,390.91,69.38Zm0,59a19.82,19.82,0,1,1,19.82-19.81A19.82,19.82,0,0,1,390.91,128.42Z" style="fill:#f47a53"/><rect x="181.28" y="218" width="112.7" height="112.7" style="fill:#f47a53"/><path d="M300,362H287V350h13Zm-25,0H262V350h13Zm-25,0H237V350h13Z" style="fill:#3e4757"/><rect x="232.5" y="303" width="46.25" height="12" style="fill:#fff"/><rect x="232.5" y="283.73" width="46.25" height="12" style="fill:#fff"/><rect x="202.63" y="238.68" width="21.67" height="21.67" style="fill:#3dc9c9"/><rect x="9.33" y="368.33" width="17.67" height="12"/><rect x="44.91" y="173.67" width="16.22" height="12"/><path d="M345.18,109.11c0,23.53,37,66,41.24,70.79l4.49,5.08,4.49-5.07c4.23-4.77,41.25-47.27,41.25-70.8a45.74,45.74,0,0,0-91.47,0Zm79.47,0c0,14.17-21.36,42.75-33.74,57.59-12.37-14.84-33.73-43.42-33.73-57.59a33.74,33.74,0,0,1,67.47,0Z"/><path d="M365.1,108.61a25.82,25.82,0,1,0,25.81-25.82A25.84,25.84,0,0,0,365.1,108.61Zm39.63,0a13.82,13.82,0,1,1-13.82-13.82A13.83,13.83,0,0,1,404.73,108.61Z"/><rect x="36.33" y="396.85" width="20" height="12"/><path d="M469.67,396.86H400.34A41.4,41.4,0,0,0,366.54,367V214.47h28.83l16.88,16.7H379.16V301H480.49v37.51h12v-44.8l-92.18-91.2H366.54v-28.8H74.82v12h35.35v16.14H74.82v12h35.35V368.33H40.33v12h69.84v16.52H73.84v12h61.95a41.27,41.27,0,1,0,1.47-12H122.17V185.67H354.54V367a41.39,41.39,0,0,0-33.8,29.87H229.28v12h90a41.29,41.29,0,0,0,82.55,0H504.7V355.26h-35ZM391.16,243.17h33.22L470.67,289H391.16ZM177.07,378.54a29.31,29.31,0,1,1-29.31,29.3A29.33,29.33,0,0,1,177.07,378.54Zm183.46,58.61a29.31,29.31,0,1,1,29.31-29.31A29.34,29.34,0,0,1,360.53,437.15Zm121.14-69.89h11v29.59h-11Z"/><path d="M177.07,427a19.19,19.19,0,1,0-19.19-19.19A19.21,19.21,0,0,0,177.07,427Zm0-26.38a7.19,7.19,0,1,1-7.19,7.19A7.2,7.2,0,0,1,177.07,400.65Z"/><path d="M360.54,388.65a19.19,19.19,0,1,0,19.19,19.19A19.21,19.21,0,0,0,360.54,388.65Zm0,26.38a7.19,7.19,0,1,1,7.19-7.19A7.2,7.2,0,0,1,360.54,415Z"/><path d="M300,212H175.28V336.7H300ZM288,324.7H187.28V224H288Z"/><path d="M230.3,232.68H196.63v33.67H230.3Zm-12,21.67h-9.67v-9.67h9.67Z"/></g></svg>